<svg width="360" height="640" viewBox="0 0 360 640" fill="none" xmlns="http://www.w3.org/2000/svg">
<g clip-path="url(#clip0)">
<path d="M284.155 -68.9203C214.109 -101.086 114.718 -251.614 35.5816 -274.946C-310.258 -414.095 -127.994 -1.49557 -128.089 214.521C-128.183 430.539 195.153 791.745 466 516C736.847 240.255 440.97 3.08957 284.155 -68.9203Z" fill="#018377" fill-opacity="0.1" style="mix-blend-mode:multiply"/>
<path d="M361.501 31.9792C266.342 -33.5094 242.314 2.73451 187.721 -54.659C0.970651 -250.987 -277.196 50.5981 -381.005 230.219C-484.813 409.839 -55.9739 797.936 301.63 698.608C659.233 599.281 496.113 124.62 361.501 31.9792Z" fill="#018377" fill-opacity="0.1" style="mix-blend-mode:multiply"/>
<path d="M319.574 77.0686C239.492 21.9563 219.272 52.4576 173.328 4.15769C16.1673 -161.064 -217.926 92.7375 -305.287 243.898C-392.647 395.059 -31.7548 721.665 269.189 638.075C570.132 554.485 432.858 155.031 319.574 77.0686Z" fill="#018377"/>
<path d="M71.3843 498.024C-51.5581 458.847 -40.7462 453.906 -104.191 395.384C-445.691 80.3842 -811.821 427.111 -847.318 559.195C-882.815 691.28 169.178 759.809 495.5 666.5C622.677 630.135 395.31 416 287.5 559.195C213.414 657.597 177.884 598 168.753 575C146.523 519 122.41 514.284 71.3843 498.024Z" fill="#018377" fill-opacity="0.2" style="mix-blend-mode:multiply"/>
<path d="M-0.478575 535.983C-111.695 500.542 -101.915 496.073 -159.309 443.132C-468.238 158.175 -799.449 471.833 -831.56 591.32C-863.672 710.807 -463.804 923.691 -168.604 839.281C126.596 754.872 156.85 586.118 -0.478575 535.983Z" fill="#018377" fill-opacity="0.2" style="mix-blend-mode:multiply"/>
</g>
<defs>
<clipPath id="clip0">
<rect width="360" height="640" fill="white"/>
</clipPath>
</defs>
</svg>
